<svg width="20" height="26" viewBox="0 0 20 26" fill="none" xmlns="http://www.w3.org/2000/svg">
    <path fill-rule="evenodd" clip-rule="evenodd"
          d="M9.99984 4.6665C5.3915 4.6665 1.6665 8.3915 1.6665 12.9998C1.6665 17.6082 5.3915 21.3332 9.99984 21.3332C14.6082 21.3332 18.3332 17.6082 18.3332 12.9998C18.3332 8.3915 14.6082 4.6665 9.99984 4.6665ZM9.99984 19.6665C6.32484 19.6665 3.33317 16.6748 3.33317 12.9998C3.33317 9.32484 6.32484 6.33317 9.99984 6.33317C13.6748 6.33317 16.6665 9.32484 16.6665 12.9998C16.6665 16.6748 13.6748 19.6665 9.99984 19.6665ZM9.99984 11.8248L12.9915 8.83317L14.1665 10.0082L11.1748 12.9998L14.1665 15.9915L12.9915 17.1665L9.99984 14.1748L7.00817 17.1665L5.83317 15.9915L8.82484 12.9998L5.83317 10.0082L7.00817 8.83317L9.99984 11.8248Z"
          fill="#A9AEB3"/>
</svg>
