<svg class="svg-icon" style="width: 1em;height: 1em;vertical-align: middle;fill: currentColor;overflow: hidden;" viewBox="0 0 1024 1024" version="1.1" xmlns="http://www.w3.org/2000/svg"><path d="M149.012049 231.182694l172.206937-141.780678C391.00033 31.961789 421.341282 17.089889 457.511563 7.336425a205.07867 205.07867 0 0 1 108.681458 0c36.170281 9.753464 66.511233 24.625364 136.292578 82.065591l172.235372 141.780678c49.193857 40.520952 64.71978 56.899947 79.620116 77.601178 14.8719 20.70123 25.108772 42.369276 31.620561 67.023076 6.511788 24.625364 9.298492 47.03274 9.298492 110.757268v249.665936c0 96.425648-10.549665 134.017717-30.397823 171.097942a206.727944 206.727944 0 0 1-85.989726 85.989726c-37.05179 19.819722-74.672295 30.397823-171.097942 30.397822H315.929935c-96.425648 0-134.046153-10.578101-171.097942-30.397822a206.727944 206.727944 0 0 1-85.989726-85.989726C38.965674 870.247869 28.444444 832.6558 28.444444 736.201716v-249.6375c0-63.724529 2.786704-86.131904 9.298493-110.757268 6.540224-24.6538 16.777096-46.350282 31.648996-67.023076 14.8719-20.70123 30.397823-37.080225 79.620116-77.601178z m53.402349 103.932687c-24.596929 20.274694-32.35989 28.464191-39.781622 38.814807a99.752631 99.752631 0 0 0-15.81028 33.49732C143.609255 419.711755 142.187467 430.915443 142.187467 462.791925v301.362139c0 50.700952 5.289051 69.098886 15.184694 87.610563 9.924079 18.540113 24.45475 33.09922 42.994863 42.994863 18.540113 9.924079 36.938047 15.213129 87.638999 15.213129h447.692538c50.700952 0 69.098886-5.289051 87.638999-15.213129a103.363972 103.363972 0 0 0 42.994863-42.994863c9.895643-18.540113 15.184694-36.909611 15.184694-87.610563V461.938852c0-31.563689-1.364916-42.653634-4.549721-54.881009a99.69576 99.69576 0 0 0-15.440616-33.212962c-7.279553-10.293744-14.900336-18.483241-39.042292-38.814807l-211.24923-177.894088c-34.805365-29.317264-50.04693-36.966482-68.245813-41.999611a102.596207 102.596207 0 0 0-54.710394-0.284358c-18.227319 4.834078-33.554192 12.312682-68.672351 41.260282l-217.192302 179.003082zM341.237758 654.022382h341.229068a56.871511 56.871511 0 1 1 0 113.743023H341.237758a56.871511 56.871511 0 1 1 0-113.743023z"  /></svg>