<?xml version="1.0" encoding="UTF-8"?>
<svg id="_레이어_2" xmlns="http://www.w3.org/2000/svg"
     viewBox="0 0 1004.17 181.33">
    <defs>
        <style>
            .cls-1{fill:#fff;}.cls-2{fill:url(#_무제_그라디언트_47);}.cls-3{fill:none;}.cls-4{fill:white;}.cls-5{fill:#003ab1;}
        </style>
        <radialGradient id="_무제_그라디언트_47" cx="90.66" cy="90.67" fx="90.66" fy="90.67" r="90.66"
                        gradientUnits="userSpaceOnUse">
            <stop offset="0" stop-color="#3c7df0"/>
            <stop offset="1" stop-color="#1e54e0"/>
        </radialGradient>
    </defs>
    <g id="_레이어_1-2">
        <g>
            <g>
                <path class="cls-2"
                      d="M154.55,91.25c0-.24,0-.49-.01-.73,6.38-1.04,12.5-3.98,17.42-8.9,12.49-12.49,12.49-32.73,0-45.22-5.03-5.03-11.33-8-17.87-8.98-.95-6.6-3.92-12.97-9-18.05-12.49-12.49-32.73-12.49-45.22,0-5,5-7.95,11.26-8.94,17.76-.26,0-.53,0-.79,0-.99-6.5-3.94-12.76-8.94-17.76-12.49-12.49-32.73-12.49-45.22,0-5.09,5.09-8.07,11.47-9.01,18.09-6.44,1.02-12.63,3.98-17.59,8.94-12.49,12.49-12.49,32.73,0,45.22,4.89,4.89,10.98,7.83,17.32,8.88,0,.26,0,.51,0,.77-6.34,1.05-12.43,3.99-17.32,8.88-12.49,12.49-12.49,32.73,0,45.22,4.98,4.98,11.19,7.94,17.65,8.95,1.01,6.46,3.97,12.67,8.95,17.65,12.49,12.49,32.73,12.49,45.22,0,4.81-4.81,7.72-10.77,8.82-16.99,.35,0,.69,0,1.03,0,1.1,6.22,4.01,12.18,8.82,16.99,12.49,12.49,32.73,12.49,45.22,0,4.97-4.97,7.92-11.17,8.94-17.61,6.56-.97,12.89-3.94,17.94-8.99,12.49-12.49,12.49-32.73,0-45.22-4.91-4.91-11.03-7.86-17.41-8.9Z"/>
                <g>
                    <path class="cls-5"
                          d="M81.45,85.57c-1.04,0-2.09-.4-2.88-1.19l-13.84-13.84c-1.59-1.59-1.59-4.17,0-5.77,1.59-1.59,4.17-1.59,5.77,0l13.84,13.84c1.59,1.59,1.59,4.17,0,5.77-.8,.8-1.84,1.19-2.88,1.19Z"/>
                    <path class="cls-5"
                          d="M67.64,117.77c-1.04,0-2.09-.4-2.88-1.19-1.59-1.59-1.59-4.17,0-5.77l13.84-13.84c1.59-1.59,4.17-1.59,5.77,0,1.59,1.59,1.59,4.17,0,5.77l-13.84,13.84c-.8,.8-1.84,1.19-2.88,1.19Z"/>
                    <path class="cls-5"
                          d="M113.68,117.82c-1.04,0-2.09-.4-2.88-1.19l-13.84-13.84c-1.59-1.59-1.59-4.17,0-5.77,1.59-1.59,4.17-1.59,5.77,0l13.84,13.84c1.59,1.59,1.59,4.17,0,5.77-.8,.8-1.84,1.19-2.88,1.19Z"/>
                    <path class="cls-5"
                          d="M99.87,85.51c-1.04,0-2.09-.4-2.88-1.19-1.59-1.59-1.59-4.17,0-5.77l13.84-13.84c1.59-1.59,4.17-1.59,5.77,0,1.59,1.59,1.59,4.17,0,5.77l-13.84,13.84c-.8,.8-1.84,1.19-2.88,1.19Z"/>
                </g>
                <path class="cls-3" d="M95.95,73.29c-.48-.77-.92-1.57-1.34-2.38v1.97c.46,.11,.9,.27,1.34,.41Z"/>
                <path class="cls-3" d="M110.29,86.59c-.81-.42-1.61-.86-2.38-1.34,.14,.45,.3,.88,.41,1.34h1.97Z"/>
                <path class="cls-1"
                      d="M114.63,92.93c-14.15,2.52-19.19,7.56-21.71,21.71-.45,2.55-4.08,2.55-4.53,0-2.52-14.15-7.56-19.19-21.71-21.71-2.55-.45-2.55-4.08,0-4.53,14.15-2.52,19.19-7.56,21.71-21.71,.45-2.55,4.08-2.55,4.53,0,2.52,14.15,7.56,19.19,21.71,21.71,2.55,.45,2.55,4.08,0,4.53Z"/>
            </g>
            <g>
                <path class="cls-4"
                      d="M210.86,97.58c0-6.42,1.11-12.49,3.33-18.22,2.22-5.72,5.4-10.74,9.55-15.06,4.14-4.32,9.14-7.73,14.98-10.25,5.84-2.51,12.38-3.77,19.62-3.77,9.46,0,17.6,2.07,24.43,6.22,6.83,4.15,11.94,9.66,15.33,16.55l-18.74,5.96c-2.22-3.85-5.2-6.86-8.93-9.02-3.74-2.16-7.88-3.24-12.44-3.24-3.85,0-7.44,.76-10.77,2.28-3.33,1.52-6.22,3.65-8.67,6.39-2.45,2.75-4.38,5.99-5.78,9.72-1.4,3.74-2.1,7.88-2.1,12.44s.73,8.56,2.19,12.35c1.46,3.8,3.44,7.09,5.96,9.9,2.51,2.8,5.43,4.99,8.76,6.57s6.86,2.36,10.6,2.36c2.33,0,4.67-.32,7.01-.96,2.33-.64,4.47-1.55,6.39-2.71,1.93-1.17,3.62-2.51,5.08-4.03,1.46-1.52,2.54-3.15,3.24-4.9l18.92,5.61c-3.04,6.89-8.12,12.52-15.24,16.9-7.13,4.38-15.53,6.57-25.22,6.57-7.12,0-13.61-1.29-19.44-3.85-5.84-2.57-10.83-6.04-14.98-10.42-4.15-4.38-7.36-9.43-9.63-15.15-2.28-5.72-3.42-11.79-3.42-18.22Z"/>
                <path class="cls-4"
                      d="M335.58,145.22c-4.44,0-8.56-.73-12.35-2.19-3.8-1.46-7.07-3.47-9.81-6.04-2.75-2.57-4.9-5.61-6.48-9.11-1.58-3.5-2.36-7.3-2.36-11.39,0-4.32,.93-8.23,2.8-11.74,1.87-3.5,4.52-6.54,7.97-9.11,3.44-2.57,7.53-4.55,12.26-5.96,4.73-1.4,9.95-2.1,15.68-2.1,4.32,0,8.58,.38,12.79,1.14,4.2,.76,8,1.78,11.39,3.07v-6.31c0-6.77-1.93-12.06-5.78-15.85-3.85-3.79-9.4-5.69-16.64-5.69-4.9,0-9.72,.91-14.45,2.72-4.73,1.81-9.61,4.41-14.63,7.8l-5.96-12.26c11.79-7.94,24.05-11.91,36.78-11.91s22.42,3.21,29.43,9.63c7.01,6.42,10.51,15.65,10.51,27.68v33.11c0,4.09,1.69,6.19,5.08,6.31v16.47c-1.87,.35-3.48,.58-4.82,.7-1.34,.12-2.66,.18-3.94,.18-3.74,0-6.63-.93-8.67-2.8-2.04-1.87-3.3-4.26-3.77-7.18l-.53-5.78c-4.09,5.37-9.14,9.49-15.15,12.35-6.02,2.86-12.47,4.29-19.35,4.29Zm5.25-14.19c4.67,0,9.08-.85,13.23-2.54,4.14-1.69,7.38-4.06,9.72-7.09,2.45-2.1,3.68-4.32,3.68-6.66v-12.09c-3.27-1.28-6.74-2.28-10.42-2.98-3.68-.7-7.27-1.05-10.77-1.05-6.89,0-12.52,1.49-16.9,4.47-4.38,2.98-6.57,6.92-6.57,11.82,0,4.55,1.69,8.38,5.08,11.47,3.39,3.1,7.71,4.64,12.96,4.64Z"/>
                <path class="cls-4"
                      d="M488.67,143.47h-19.27v-51.32c0-8.64-1.37-14.92-4.12-18.83-2.75-3.91-6.8-5.87-12.17-5.87-2.8,0-5.6,.53-8.41,1.58-2.8,1.05-5.43,2.54-7.88,4.47-2.45,1.93-4.64,4.2-6.57,6.83-1.93,2.63-3.42,5.52-4.47,8.67v54.48h-19.27V51.86h17.52v18.39c3.5-6.19,8.58-11.06,15.24-14.63,6.66-3.56,14.01-5.34,22.07-5.34,5.49,0,9.98,.99,13.49,2.98,3.5,1.99,6.28,4.7,8.32,8.15,2.04,3.45,3.47,7.42,4.29,11.91,.82,4.5,1.23,9.26,1.23,14.28v55.88Z"/>
                <path class="cls-4"
                      d="M544.89,145.22c-6.19,0-11.91-1.26-17.17-3.77-5.26-2.51-9.81-5.92-13.66-10.25-3.85-4.32-6.86-9.37-9.02-15.15-2.16-5.78-3.24-12-3.24-18.65s1.02-12.46,3.07-18.13c2.04-5.66,4.9-10.65,8.58-14.98,3.68-4.32,8-7.73,12.96-10.25,4.96-2.51,10.42-3.77,16.38-3.77,7.36,0,13.84,1.78,19.44,5.34,5.61,3.56,9.98,8.09,13.14,13.58V15.6h19.27V120.7c0,2.22,.38,3.8,1.14,4.73,.76,.94,2.13,1.46,4.12,1.58v16.47c-1.99,.35-3.59,.58-4.82,.7-1.23,.12-2.25,.18-3.07,.18-3.85,0-7.01-.99-9.46-2.98-2.45-1.98-3.8-4.55-4.03-7.71l-.35-6.83c-3.39,5.72-8,10.22-13.84,13.49-5.84,3.27-12.32,4.9-19.44,4.9Zm4.73-16.47c2.8,0,5.61-.47,8.41-1.4,2.8-.93,5.37-2.22,7.71-3.85,2.33-1.63,4.35-3.56,6.04-5.78,1.69-2.22,2.89-4.61,3.59-7.18v-24c-1.05-2.92-2.54-5.61-4.47-8.06-1.93-2.45-4.12-4.55-6.57-6.31s-5.05-3.09-7.8-4.03c-2.74-.93-5.52-1.4-8.32-1.4-3.85,0-7.39,.88-10.6,2.63-3.21,1.75-5.99,4.09-8.32,7.01-2.34,2.92-4.18,6.25-5.52,9.98-1.34,3.74-2.01,7.59-2.01,11.56,0,4.2,.73,8.17,2.19,11.91,1.46,3.74,3.47,7.01,6.04,9.81,2.57,2.8,5.52,5.02,8.85,6.66,3.33,1.64,6.92,2.45,10.77,2.45Z"/>
                <path class="cls-4" d="M615.66,36.8V15.6h19.27v21.19h-19.27Zm0,106.67V51.86h19.27v91.61h-19.27Z"/>
                <path class="cls-4"
                      d="M691.85,145.22c-6.19,0-11.91-1.26-17.17-3.77-5.26-2.51-9.81-5.92-13.66-10.25-3.85-4.32-6.86-9.37-9.02-15.15-2.16-5.78-3.24-12-3.24-18.65s1.02-12.46,3.07-18.13c2.04-5.66,4.9-10.65,8.58-14.98,3.68-4.32,8-7.73,12.96-10.25,4.96-2.51,10.42-3.77,16.38-3.77,7.36,0,13.84,1.78,19.44,5.34,5.61,3.56,9.98,8.09,13.14,13.58V15.6h19.27V120.7c0,2.22,.38,3.8,1.14,4.73,.76,.94,2.13,1.46,4.12,1.58v16.47c-1.99,.35-3.59,.58-4.82,.7-1.23,.12-2.25,.18-3.07,.18-3.85,0-7.01-.99-9.46-2.98-2.45-1.98-3.8-4.55-4.03-7.71l-.35-6.83c-3.39,5.72-8,10.22-13.84,13.49-5.84,3.27-12.32,4.9-19.44,4.9Zm4.73-16.47c2.8,0,5.61-.47,8.41-1.4,2.8-.93,5.37-2.22,7.71-3.85,2.33-1.63,4.35-3.56,6.04-5.78,1.69-2.22,2.89-4.61,3.59-7.18v-24c-1.05-2.92-2.54-5.61-4.47-8.06-1.93-2.45-4.12-4.55-6.57-6.31-2.45-1.75-5.05-3.09-7.8-4.03-2.74-.93-5.52-1.4-8.32-1.4-3.85,0-7.39,.88-10.6,2.63-3.21,1.75-5.99,4.09-8.32,7.01-2.34,2.92-4.18,6.25-5.52,9.98-1.34,3.74-2.01,7.59-2.01,11.56,0,4.2,.73,8.17,2.19,11.91,1.46,3.74,3.47,7.01,6.04,9.81,2.57,2.8,5.52,5.02,8.85,6.66,3.33,1.64,6.92,2.45,10.77,2.45Z"/>
                <path class="cls-4"
                      d="M786.97,145.22c-4.44,0-8.56-.73-12.35-2.19-3.8-1.46-7.07-3.47-9.81-6.04-2.75-2.57-4.9-5.61-6.48-9.11-1.58-3.5-2.36-7.3-2.36-11.39,0-4.32,.93-8.23,2.8-11.74,1.87-3.5,4.52-6.54,7.97-9.11,3.44-2.57,7.53-4.55,12.26-5.96,4.73-1.4,9.95-2.1,15.68-2.1,4.32,0,8.58,.38,12.79,1.14,4.2,.76,8,1.78,11.39,3.07v-6.31c0-6.77-1.93-12.06-5.78-15.85-3.85-3.79-9.4-5.69-16.64-5.69-4.9,0-9.72,.91-14.45,2.72-4.73,1.81-9.61,4.41-14.63,7.8l-5.96-12.26c11.79-7.94,24.05-11.91,36.78-11.91s22.42,3.21,29.43,9.63c7.01,6.42,10.51,15.65,10.51,27.68v33.11c0,4.09,1.69,6.19,5.08,6.31v16.47c-1.87,.35-3.48,.58-4.82,.7-1.34,.12-2.66,.18-3.94,.18-3.74,0-6.63-.93-8.67-2.8-2.04-1.87-3.3-4.26-3.77-7.18l-.53-5.78c-4.09,5.37-9.14,9.49-15.15,12.35-6.02,2.86-12.47,4.29-19.35,4.29Zm5.25-14.19c4.67,0,9.08-.85,13.23-2.54,4.14-1.69,7.38-4.06,9.72-7.09,2.45-2.1,3.68-4.32,3.68-6.66v-12.09c-3.27-1.28-6.74-2.28-10.42-2.98-3.68-.7-7.27-1.05-10.77-1.05-6.89,0-12.52,1.49-16.9,4.47-4.38,2.98-6.57,6.92-6.57,11.82,0,4.55,1.69,8.38,5.08,11.47,3.39,3.1,7.71,4.64,12.96,4.64Z"/>
                <path class="cls-4"
                      d="M908.18,138.74c-2.45,1.17-5.84,2.48-10.16,3.94-4.32,1.46-8.93,2.19-13.84,2.19-3.04,0-5.9-.41-8.58-1.23-2.69-.82-5.05-2.04-7.09-3.68-2.04-1.63-3.65-3.77-4.82-6.39-1.17-2.63-1.75-5.81-1.75-9.55v-57.28h-12.09v-14.89h12.09V21.73h19.27v30.13h19.97v14.89h-19.97v51.15c.23,3.27,1.25,5.64,3.07,7.09,1.81,1.46,4.06,2.19,6.74,2.19s5.26-.47,7.71-1.4c2.45-.93,4.26-1.69,5.43-2.28l4.03,15.24Z"/>
                <path class="cls-4"
                      d="M957.23,145.22c-7.12,0-13.61-1.26-19.44-3.77-5.84-2.51-10.83-5.92-14.98-10.25-4.15-4.32-7.36-9.34-9.63-15.06-2.28-5.72-3.42-11.79-3.42-18.22s1.14-12.52,3.42-18.3c2.28-5.78,5.49-10.86,9.63-15.24,4.14-4.38,9.14-7.82,14.98-10.33,5.84-2.51,12.38-3.77,19.62-3.77s13.58,1.29,19.36,3.85c5.78,2.57,10.71,5.98,14.8,10.25,4.09,4.26,7.21,9.23,9.37,14.89,2.16,5.67,3.24,11.59,3.24,17.78,0,1.4-.06,2.72-.18,3.94-.12,1.23-.24,2.25-.35,3.07h-73.39c.35,4.09,1.31,7.77,2.89,11.04,1.58,3.27,3.62,6.1,6.13,8.5,2.51,2.39,5.37,4.23,8.58,5.52,3.21,1.29,6.57,1.93,10.07,1.93,2.57,0,5.11-.32,7.62-.96,2.51-.64,4.82-1.58,6.92-2.8,2.1-1.23,3.97-2.72,5.61-4.47,1.63-1.75,2.92-3.68,3.85-5.78l16.47,4.73c-3.15,6.89-8.38,12.52-15.68,16.9-7.3,4.38-15.79,6.57-25.49,6.57Zm27.85-54.48c-.35-3.85-1.31-7.41-2.89-10.68-1.58-3.27-3.59-6.04-6.04-8.32-2.45-2.28-5.32-4.06-8.58-5.34-3.27-1.28-6.72-1.93-10.33-1.93s-7.04,.64-10.25,1.93c-3.21,1.29-6.04,3.07-8.5,5.34-2.45,2.28-4.44,5.05-5.96,8.32-1.52,3.27-2.45,6.83-2.8,10.68h55.35Z"/>
            </g>
        </g>
    </g>
</svg>
